<svg xmlns="http://www.w3.org/2000/svg" xmlns:xlink="http://www.w3.org/1999/xlink" fill="none" version="1.1" width="1208" height="169" viewBox="0 0 1208 169"><defs><clipPath id="master_svg0_1_0"><rect x="0" y="0" width="1208" height="169" rx="0"/></clipPath></defs><g clip-path="url(#master_svg0_1_0)"><g><g><g><path d="M52.9989,12.45922C63.9094,7.78437,76.0492,9.495923,87.5744,9.138284C128.041,6.35381,161.694,46.1028,161.028,84.7789C161.796,126.904,121.51,163.102,79.8909,160.905C58.6334,160.726,38.7845,150.303,24.5957,134.848C5.438322,116.532,1.1612,86.8481,8.15314,62.1455C14.09501,39.6398,31.8438,21.527900000000002,52.9989,12.45922ZM78.7384,22.0644C73.2319,31.6185,70.0817,42.1943,67.7767,52.898C77.5603,53.4855,87.3439,53.46,97.1275,52.8213C95.642,41.9133,93.004,30.9287,86.217,22.0133C83.7327,22.038800000000002,81.2227,22.0644,78.7384,22.0644ZM25.8507,52.9235C35.326899999999995,53.6132,44.88,53.7665,54.2794,52.336C56.6613,42.7308,59.6066,33.2278,61.5531,23.5205C46.4679,28.5274,33.4317,38.899,25.8507,52.9235ZM103.6072,23.6993C105.4,33.6876,108.448,43.395,111.982,52.898C120.997,53.4344,130.038,53.46,139.053,52.7702C131.47199999999998,39.0522,118.872,27.991,103.6072,23.6993ZM19.6783,68.2253C18.7819,78.6991,18.8331,89.2494,19.5246,99.7231C30.1534,101.4602,40.9615,101.4091,51.6415,100.1063C53.0245,89.4538,53.0501,78.6735,51.5902,68.04650000000001C40.9615,67.6378,30.3071,67.5356,19.6783,68.2253ZM65.8814,68.19980000000001C65.34360000000001,79.1589,65.4204,90.1435,66.11189999999999,101.1026C76.9456,101.1537,87.8049,101.1537,98.6642,100.8471C99.4581,89.9647,99.4325,79.0567,99.0227,68.1743C87.9842,67.58670000000001,76.92,67.6378,65.8814,68.19980000000001ZM114.543,68.3275C113.801,79.0823,113.775,89.8881,114.697,100.6428C125.07,101.2303,135.519,101.358,145.866,100.0297C147.659,89.4538,148.786,78.3414,144.509,68.1743C134.52,67.68889999999999,124.532,67.6378,114.543,68.3275ZM67.5718,114.105C70.0049,126.367,72.7453,139.651,82.4777,148.413C92.9784,140.264,94.9761,126.418,97.2043,114.208C87.3439,113.748,77.4578,113.697,67.5718,114.105ZM111.982,114.361C108.371,124.528,105.426,134.951,103.2742,145.526C117.412,138.144,132.19,129.228,139.284,114.284C130.192,113.722,121.074,113.773,111.982,114.361ZM27.5923,114.489C32.3048,128.947,45.6484,137.403,59.2481,142.435C58.198,133.44299999999998,56.7381,124.4,53.4343,115.945C45.5715,112.036,36.0953,114.437,27.5923,114.489Z" fill="#000000" fill-opacity="1" style="mix-blend-mode:passthrough"/></g><g><path d="M153.83120290039062,25.845163414952157C165.33077290039063,16.265563414952158,179.72447290039062,8.78069341495216,195.09137290039064,9.21496941495216C209.97157290039064,9.521517414952159,226.08127290039062,6.915863414952159,239.65537290039063,14.630643414952159C261.73247290039063,25.104363414952157,276.8944729003906,46.56266341495216,282.9134729003906,69.80926341495216C286.5244729003906,90.62896341495215,281.01747290039066,112.80296341495216,268.16047290039063,129.56096341495214C259.88847290039064,139.06396341495216,250.61747290039062,148.23396341495217,239.24557290039064,153.98196341495216C222.5724729003906,160.77696341495215,203.56877290039063,163.40896341495215,186.02487290039062,158.34996341495216C172.3482729003906,154.49296341495216,158.31321290039062,148.20896341495217,149.98948090039062,136.15096341495217C150.70661290039064,134.23496341495218,152.08962290039062,130.45496341495215,152.80675290039062,128.53896341495215C164.45997290039062,130.73596341495215,172.50197290039063,140.64696341495215,183.77107290039064,144.09596341495217C182.00387290039063,134.54196341495216,179.5195729003906,125.14096341495215,177.00957290039062,115.76596341495215C172.96297290039064,114.23296341495215,168.91637290039063,112.67496341495216,164.8953729003906,111.14196341495216C163.81967290039063,104.19366341495216,170.19697290039062,100.97496341495216,174.32037290039062,96.68326341495217C176.44617290039062,88.94296341495216,175.6265729003906,80.53836341495216,174.67897290039062,72.67036341495216C170.96527290039063,67.22916341495215,165.20267290039064,63.34616341495216,162.53907290039064,57.13856341495216C167.32847290039064,55.06936341495216,172.22027290039063,53.20456341495216,177.1376729003906,51.41636341495216C179.75007290039062,42.168863414952156,182.2599729003906,32.89576341495216,184.12957290039063,23.46946341495216C174.16677290039064,27.73556341495216,165.1770729003906,33.84096341495216,156.39235290039062,40.09966341495216C154.11293290039063,38.43916341495216,151.80790290039062,36.77876341495216,149.52847290039062,35.14376341495216C150.09192890039063,31.69516341495216,150.75782290039064,27.99106341495216,153.83120290039062,25.845163414952157ZM201.51977290039062,22.166563414952158C195.60357290039062,31.51636341495216,192.4277729003906,42.168863414952156,190.50687290039062,52.97466341495216C200.44417290039064,53.48556341495216,210.38137290039063,53.48556341495216,220.31867290039062,52.923563414952156C218.16727290039063,41.70906341495216,214.58167290039063,30.57116341495216,207.23117290039062,21.60456341495216C205.79697290039064,21.73236341495216,202.95407290039063,22.03886341495216,201.51977290039062,22.166563414952158ZM226.54227290039063,23.62276341495216C228.51437290039064,33.58546341495216,230.99867290039063,43.44616341495216,234.32817290039063,53.05126341495216C243.52267290039063,53.51116341495216,252.74247290039062,53.53666341495216,261.9374729003906,52.84696341495216C254.51047290039062,38.84796341495216,241.37127290039064,28.83406341495216,226.54227290039063,23.62276341495216ZM189.78977290039063,67.89326341495216C188.09937290039062,78.75016341495215,188.32987290039063,89.76036341495215,189.53367290039063,100.64286341495216C200.08557290039062,101.28146341495216,210.68867290039063,101.25596341495216,221.24067290039062,100.56616341495216C222.3163729003906,89.70926341495216,222.5724729003906,78.75016341495215,220.98457290039062,67.91886341495216C210.5862729003906,67.61226341495217,200.18797290039063,67.58676341495216,189.78977290039063,67.89326341495216ZM235.25017290039062,68.19986341495216C235.22457290039063,78.62246341495216,235.19897290039063,89.04506341495215,235.19897290039063,99.46776341495216C246.59607290039062,101.48586341495216,258.71047290039064,102.60986341495216,269.7744729003906,98.36926341495216C270.10747290039063,89.22396341495215,271.1064729003906,80.00196341495216,269.8514729003906,70.90766341495217C268.2884729003906,69.06836341495216,266.2654729003906,68.12326341495216,263.80647290039065,68.12326341495216C254.3054729003906,67.17806341495216,244.75207290039063,67.76556341495217,235.25017290039062,68.19986341495216ZM190.53247290039062,114.10496341495215C192.60697290039062,126.34196341495216,195.44987290039063,139.59996341495216,205.36157290039063,148.08096341495215C214.88897290039063,139.34496341495216,218.50027290039063,126.57196341495217,220.34427290039062,114.18196341495216C210.40697290039063,113.84996341495216,200.46977290039064,113.79896341495215,190.53247290039062,114.10496341495215ZM233.53417290039062,114.59096341495216C231.30597290039063,125.24296341495216,228.69357290039062,135.81896341495218,224.54457290039062,145.90996341495216C239.50167290039064,138.83396341495217,254.76647290039062,129.66296341495217,262.24447290039063,114.25896341495216C252.66647290039063,113.69696341495217,243.08727290039064,113.72196341495216,233.53417290039062,114.59096341495216Z" fill="#000000" fill-opacity="1" style="mix-blend-mode:passthrough"/></g></g><g><path d="M326,148.4Q326,153.6,323.2,156.3Q320.4,159,315.4,159L309.8,159Q304.6,159,301.9,156.3Q299.2,153.6,299.2,148.4L299.2,21.4Q299.2,16.200000000000003,301.9,13.5Q304.6,10.799999999999997,309.8,10.799999999999997L315.4,10.799999999999997Q320.4,10.799999999999997,323.2,13.5Q326,16.200000000000003,326,21.4L326,148.4ZM378.8,148.8Q378.8,153.8,376.2,156.4Q373.6,159,368.6,159L363.4,159Q358.4,159,355.8,156.4Q353.2,153.8,353.2,148.8L353.2,63.2Q353.2,58.2,355.8,55.599999999999994Q358.4,53,363.4,53L368.6,53Q373.6,53,376.2,55.599999999999994Q378.8,58.2,378.8,63.2L378.8,148.8ZM353.2,126.19999999999999Q353.2,106.19999999999999,360.6,88.8Q368,71.4,381,61.099999999999994Q394,50.8,410,50.8Q420.2,50.8,429.1,56.599999999999994Q438,62.400000000000006,443.5,73.5Q449,84.6,449,99.4L449,148.8Q449,153.8,446.4,156.4Q443.8,159,438.8,159L433.6,159Q428.6,159,426,156.4Q423.4,153.8,423.4,148.8L423.4,99.4Q423.4,91.2,420.4,85.9Q417.4,80.6,412.8,78.1Q408.2,75.6,403.2,75.6Q396,75.6,390.6,78.6Q385.2,81.6,382,88.8Q378.8,96,378.8,108.19999999999999L353.2,126.19999999999999ZM530.2,133.6Q535.2,134.4,537.6,136.8Q540,139.2,540,143.6L540,148.8Q540,153.6,537.3,156.3Q534.6,159,529.8,158.6Q507.6,156.6,497.2,145.9Q486.8,135.2,486.8,116.4L486.8,29.4Q486.8,24.4,489.4,21.799999999999997Q492,19.200000000000003,497,19.200000000000003L502.2,19.200000000000003Q507.2,19.200000000000003,509.8,21.799999999999997Q512.4,24.4,512.4,29.200000000000003L512.4,112.4Q512.4,119.6,513.9,123.9Q515.4,128.2,519.2,130.5Q523,132.8,530.2,133.6ZM530.4,53Q535.2,53,537.6,55.400000000000006Q540,57.8,540,62.400000000000006L540,67.4Q540,71.8,537.6,74.3Q535.2,76.8,530.4,76.8L476.6,76.8Q472,76.8,469.5,74.3Q467,71.8,467,67.4L467,62.400000000000006Q467,57.8,469.5,55.400000000000006Q472,53,476.6,53L530.4,53ZM658.8,97.4Q660.2,104.4,656.2,108.5Q652.2,112.6,645,112.6L636.6,112.6Q636.6,99,632.9,90.3Q629.2,81.6,622.7,77.7Q616.2,73.8,607.4,73.8Q597.2,73.8,590.3,77.5Q583.4,81.2,579.8,88.4Q576.2,95.6,576.2,105.80000000000001Q576.2,116.4,579.8,123.6Q583.4,130.8,590.8,134.5Q598.2,138.2,609.4,138.2Q615,138.2,620.2,135.9Q625.4,133.6,629.6,129.2Q633.4,126.19999999999999,636.5,125.69999999999999Q639.6,125.19999999999999,643.2,127.6L647.6,130.6Q651.8,133.6,652.3,137.2Q652.8,140.8,649.2,144.2Q641,152.2,630.6,156.7Q620.2,161.2,609.4,161.2Q592,161.2,579,154Q566,146.8,558.9,134.2Q551.8,121.6,551.8,105.80000000000001Q551.8,90,558.9,77.5Q566,65,578.7,57.900000000000006Q591.4,50.8,607.4,50.8Q619.8,50.8,630.7,56Q641.6,61.2,649.1,71.7Q656.6,82.2,658.8,97.4ZM641.2,112.6L568.4,112.6L568.4,91.8L641.2,91.8L641.2,112.6ZM705.6,148.8Q705.6,153.8,703,156.4Q700.4,159,695.4,159L690.2,159Q685.2,159,682.6,156.4Q680,153.8,680,148.8L680,63.2Q680,58.2,682.6,55.599999999999994Q685.2,53,690.2,53L695.4,53Q700.4,53,703,55.599999999999994Q705.6,58.2,705.6,63.2L705.6,148.8ZM680,126.19999999999999Q680,107.80000000000001,685.8,92Q691.6,76.2,702.5,65.6Q713.4,55,727.6,52Q732.6,51,735.5,53.5Q738.4,56,738.4,60.8L738.4,66Q738.4,70.6,736.1,73.1Q733.8,75.6,729.2,76.4Q721,77.6,715.8,81.1Q710.6,84.6,708.1,91.2Q705.6,97.80000000000001,705.6,108.19999999999999L680,126.19999999999999ZM785.4,148.4Q785.4,153.6,782.6,156.3Q779.8,159,774.8,159L769.2,159Q764,159,761.3,156.3Q758.6,153.6,758.6,148.4L758.6,21.4Q758.6,16.200000000000003,761.3,13.5Q764,10.799999999999997,769.2,10.799999999999997L774.8,10.799999999999997Q779.8,10.799999999999997,782.6,13.5Q785.4,16.200000000000003,785.4,21.4L785.4,148.4ZM825.266,17.4Q828.059,13.799999999999997,831.253,12.299999999999997Q834.447,10.799999999999997,838.838,10.799999999999997L846.422,10.799999999999997Q851.013,10.799999999999997,853.606,12.700000000000003Q856.2,14.600000000000001,856.2,17.799999999999997Q856.2,21,853.2,24.6L775,118.4L763.4,93.2L825.266,17.4ZM863.8,144.2Q866.4,148.2,866.4,151.7Q866.4,155.2,864.303,157.1Q862.209,159,858.619,159L852.034,159Q846.847,159,842.556,156.2Q838.269,153.4,834.078,147L784.2,71.8L811.6,65.8L863.8,144.2ZM911.2,148.8Q911.2,153.8,908.6,156.4Q906,159,901,159L895.8,159Q890.8,159,888.2,156.4Q885.6,153.8,885.6,148.8L885.6,63.2Q885.6,58.2,888.2,55.599999999999994Q890.8,53,895.8,53L901,53Q906,53,908.6,55.599999999999994Q911.2,58.2,911.2,63.2L911.2,148.8ZM885.6,126.19999999999999Q885.6,106.19999999999999,893,88.8Q900.4,71.4,913.4,61.099999999999994Q926.4,50.8,942.4,50.8Q952.6,50.8,961.5,56.599999999999994Q970.4,62.400000000000006,975.9,73.5Q981.4,84.6,981.4,99.4L981.4,148.8Q981.4,153.8,978.8,156.4Q976.2,159,971.2,159L966,159Q961,159,958.4,156.4Q955.8,153.8,955.8,148.8L955.8,99.4Q955.8,91.2,952.8,85.9Q949.8,80.6,945.2,78.1Q940.6,75.6,935.6,75.6Q928.4,75.6,923,78.6Q917.6,81.6,914.4,88.8Q911.2,96,911.2,108.19999999999999L885.6,126.19999999999999ZM1057.4,137.6Q1066.2,137.6,1072.8,133.6Q1079.4,129.6,1082.9,122.4Q1086.4,115.19999999999999,1086.4,106Q1086.4,96.6,1082.9,89.5Q1079.4,82.4,1072.8,78.4Q1066.2,74.4,1057.4,74.4Q1048.6,74.4,1042,78.4Q1035.4,82.4,1031.9,89.5Q1028.4,96.6,1028.4,106Q1028.4,115.19999999999999,1032,122.4Q1035.6,129.6,1042.1,133.6Q1048.6,137.6,1057.4,137.6ZM1057.4,161.2Q1042.4,161.2,1029.7,153.7Q1017,146.2,1009.6,133.5Q1002.2,120.80000000000001,1002.2,106Q1002.2,91,1009.7,78.3Q1017.2,65.6,1029.9,58.2Q1042.6,50.8,1057.4,50.8Q1072.4,50.8,1085.1,58.2Q1097.8,65.6,1105.2,78.3Q1112.6,91,1112.6,106Q1112.6,120.80000000000001,1105.2,133.5Q1097.8,146.2,1085.1,153.7Q1072.4,161.2,1057.4,161.2ZM1186.6,133.6Q1191.6,134.4,1194,136.8Q1196.4,139.2,1196.4,143.6L1196.4,148.8Q1196.4,153.6,1193.7,156.3Q1191,159,1186.2,158.6Q1164,156.6,1153.6,145.9Q1143.2,135.2,1143.2,116.4L1143.2,29.4Q1143.2,24.4,1145.8,21.799999999999997Q1148.4,19.200000000000003,1153.4,19.200000000000003L1158.6,19.200000000000003Q1163.6,19.200000000000003,1166.2,21.799999999999997Q1168.8,24.4,1168.8,29.200000000000003L1168.8,112.4Q1168.8,119.6,1170.3,123.9Q1171.8,128.2,1175.6,130.5Q1179.4,132.8,1186.6,133.6ZM1186.8,53Q1191.6,53,1194,55.400000000000006Q1196.4,57.8,1196.4,62.400000000000006L1196.4,67.4Q1196.4,71.8,1194,74.3Q1191.6,76.8,1186.8,76.8L1133,76.8Q1128.4,76.8,1125.9,74.3Q1123.4,71.8,1123.4,67.4L1123.4,62.400000000000006Q1123.4,57.8,1125.9,55.400000000000006Q1128.4,53,1133,53L1186.8,53Z" fill="#000000" fill-opacity="1"/></g></g></g></svg>